<?xml version="1.0" standalone="no"?>
<!DOCTYPE svg PUBLIC "-//W3C//DTD SVG 20010904//EN"
 "http://www.w3.org/TR/2001/REC-SVG-20010904/DTD/svg10.dtd">
<svg version="1.0" xmlns="http://www.w3.org/2000/svg"
 width="1024.000000pt" height="1024.000000pt" viewBox="0 0 1024.000000 1024.000000"
 preserveAspectRatio="xMidYMid meet">

<g transform="translate(0.000000,1024.000000) scale(0.100000,-0.100000)"
fill="#000000" stroke="none">
<path d="M3965 7270 c-19 -5 1 -6 50 -4 72 5 78 4 56 -9 -21 -13 -19 -13 33
-9 51 4 56 3 50 -13 -6 -14 -15 -16 -56 -12 -30 4 -46 2 -43 -3 4 -6 0 -10 -7
-10 -9 0 -9 -3 2 -10 11 -7 7 -10 -20 -12 -19 -1 37 -4 125 -8 101 -4 186 -14
230 -25 81 -21 259 -90 295 -115 14 -10 51 -35 83 -55 80 -52 224 -196 279
-280 210 -320 251 -681 118 -1037 l-20 -55 -93 -22 c-297 -71 -529 -178 -653
-300 -143 -141 -156 -179 -153 -435 2 -116 7 -197 13 -205 8 -11 8 -13 -1 -7
-8 4 -13 2 -13 -8 0 -23 11 -46 20 -41 13 8 21 -12 30 -73 4 -35 4 -59 -2 -63
-6 -4 0 -16 13 -28 l23 -21 -21 -22 c-11 -13 -35 -40 -54 -62 -113 -128 -112
-128 -198 -38 -165 174 -197 208 -296 327 -264 315 -471 632 -590 906 -117
267 -160 527 -121 733 55 287 179 496 411 695 28 24 40 38 27 31 -23 -11 -42
-7 -42 10 0 5 7 7 15 4 8 -4 23 0 32 7 12 11 17 11 20 2 3 -9 21 -3 56 18 74
44 148 77 257 115 79 28 82 38 5 17 -26 -7 -17 2 20 21 27 14 28 16 8 16 -13
0 -23 -4 -23 -10 0 -5 -6 -10 -14 -10 -9 0 -13 7 -11 20 3 13 -2 20 -13 21
-14 0 -13 2 3 9 11 5 33 11 49 15 15 3 26 8 23 11 -11 11 -137 -30 -233 -76
-88 -41 -224 -123 -224 -134 0 -2 10 -2 23 1 17 4 14 0 -11 -16 -18 -12 -36
-21 -40 -21 -4 0 0 4 8 10 8 5 11 12 8 16 -12 11 -210 -197 -261 -273 -61 -92
-121 -212 -153 -305 -77 -227 -76 -511 2 -759 91 -290 256 -586 528 -949 184
-246 496 -593 560 -624 75 -35 133 -11 234 101 39 42 72 75 74 73 2 -3 23 -43
47 -90 73 -142 151 -249 261 -360 88 -88 252 -219 291 -232 5 -2 14 -39 18
-83 10 -97 27 -133 98 -202 278 -272 1099 -269 1373 6 65 64 90 123 90 210 l0
56 88 60 c124 85 313 276 395 401 151 228 229 464 258 774 15 164 8 238 -32
318 -52 107 -151 196 -314 282 -44 23 -81 43 -83 45 -2 1 5 22 15 46 35 88 16
197 -42 235 -27 18 -57 7 -75 -26 -9 -17 -6 -25 19 -46 18 -15 33 -39 37 -59
6 -34 -10 -100 -27 -110 -5 -3 -46 6 -91 20 -46 15 -119 35 -163 44 l-80 18
-1 79 c-1 92 -20 183 -41 191 -45 17 -219 -51 -294 -115 -37 -31 -42 -34 -51
-19 -5 10 -19 26 -30 37 -18 17 -24 18 -47 5 -14 -7 -57 -45 -95 -84 -37 -39
-70 -71 -71 -71 -5 0 0 24 8 38 12 18 -183 16 -394 -4 -94 -9 -172 -14 -175
-12 -2 3 3 24 11 48 8 24 25 89 36 144 25 117 29 341 10 441 -57 285 -201 540
-399 708 -85 73 -171 129 -184 121 -7 -4 -8 -3 -4 5 5 8 -23 26 -86 55 -123
58 -138 62 -138 39 0 -19 -50 -53 -77 -53 -14 0 -14 3 2 20 10 11 21 18 25 15
4 -2 7 3 7 11 0 10 -4 11 -11 4 -15 -15 -30 -12 -17 4 10 11 8 15 -6 20 -10 3
-7 4 7 2 14 -2 33 -7 43 -11 9 -4 17 -3 17 3 0 11 -50 25 -168 47 -82 16 -324
19 -377 5z m368 -16 c55 -6 80 -24 35 -24 -19 0 -20 -2 -8 -10 20 -14 -95 -6
-130 9 l-25 10 29 0 c25 1 27 3 15 17 -12 15 -11 16 6 11 11 -3 46 -9 78 -13z
m-79 -49 c19 -14 18 -15 -10 -14 -16 0 -23 3 -15 6 11 5 11 7 0 14 -8 5 -9 9
-4 9 6 -1 19 -7 29 -15z m46 -10 c0 -8 -4 -15 -10 -15 -5 0 -10 7 -10 15 0 8
5 15 10 15 6 0 10 -7 10 -15z m-511 -19 c-2 -2 -15 -7 -29 -11 l-25 -8 25 21
c14 11 27 16 29 11 1 -6 1 -12 0 -13z m765 8 c3 -8 2 -12 -4 -9 -6 3 -10 10
-10 16 0 14 7 11 14 -7z m-174 2 c0 -3 -4 -8 -10 -11 -5 -3 -10 -1 -10 4 0 6
5 11 10 11 6 0 10 -2 10 -4z m35 -16 c3 -6 -1 -7 -9 -4 -18 7 -21 14 -7 14 6
0 13 -4 16 -10z m220 -40 c3 -6 -1 -7 -9 -4 -18 7 -21 14 -7 14 6 0 13 -4 16
-10z m-975 -4 c0 -3 -4 -8 -10 -11 -5 -3 -10 -1 -10 4 0 6 5 11 10 11 6 0 10
-2 10 -4z m1065 -38 c4 4 5 0 3 -8 -3 -8 -1 -23 4 -32 10 -21 0 -23 -25 -4
-13 10 -15 15 -5 18 10 4 10 9 -2 24 -14 17 -13 18 1 7 9 -7 19 -9 24 -5z m60
-8 c3 -5 2 -10 -4 -10 -5 0 -13 5 -16 10 -3 6 -2 10 4 10 5 0 13 -4 16 -10z
m-105 -10 c0 -5 -2 -10 -4 -10 -3 0 -8 5 -11 10 -3 6 -1 10 4 10 6 0 11 -4 11
-10z m-1190 -55 c-15 -18 -35 -20 -23 -2 4 6 8 15 9 20 1 4 2 10 3 14 0 4 6 2
13 -5 8 -8 8 -15 -2 -27z m1314 16 c3 -5 -1 -11 -9 -15 -8 -3 -17 0 -21 6 -4
7 -3 8 4 4 7 -4 12 -2 12 3 0 13 7 14 14 2z m-1269 -11 c3 -5 2 -10 -4 -10 -5
0 -13 5 -16 10 -3 6 -2 10 4 10 5 0 13 -4 16 -10z m1230 -10 c3 -5 1 -10 -4
-10 -6 0 -11 5 -11 10 0 6 2 10 4 10 3 0 8 -4 11 -10z m-1337 -38 l21 -18 -22
-14 c-21 -12 -21 -12 -7 5 13 17 13 18 0 13 -11 -4 -16 0 -16 13 0 23 -2 23
24 1z m2955 -1235 c8 -65 -5 -152 -32 -212 -23 -51 -24 -50 51 -60 26 -3 50
-10 53 -15 17 -28 -85 -154 -169 -209 l-41 -26 40 -3 c22 -1 51 -5 64 -8 24
-5 23 -7 -28 -55 -64 -62 -130 -93 -252 -119 -93 -20 -129 -41 -129 -76 0 -19
38 -61 78 -86 101 -62 418 -63 541 0 112 57 144 79 222 155 83 80 87 85 112
168 15 47 27 97 27 112 0 15 2 27 5 27 14 0 75 -37 126 -76 91 -69 148 -161
149 -237 0 -36 -42 -137 -58 -137 -4 0 -16 20 -26 43 -19 41 -143 173 -154
163 -3 -3 6 -15 19 -27 16 -14 19 -19 7 -15 -12 3 -15 1 -11 -10 3 -9 13 -12
23 -9 27 8 33 -22 9 -46 -11 -11 -25 -17 -32 -14 -7 4 -1 -3 13 -15 14 -12 25
-29 25 -36 0 -8 4 -14 8 -14 4 0 12 0 18 0 7 0 9 9 6 22 -3 12 -2 29 4 39 6
11 5 20 -1 24 -5 3 -10 11 -10 18 0 6 6 3 13 -7 8 -10 12 -29 9 -41 -2 -13 1
-26 7 -29 18 -12 13 -24 -16 -40 -16 -8 -23 -15 -16 -16 7 0 10 -7 6 -17 -4
-11 -3 -14 5 -9 8 5 12 -1 12 -18 0 -31 -77 -93 -94 -76 -12 12 -29 13 -22 1
4 -5 -9 -8 -28 -7 -28 3 -41 -3 -63 -27 -23 -25 -24 -27 -5 -16 12 8 22 18 22
24 0 5 4 3 10 -5 12 -20 -22 -41 -147 -90 -169 -67 -424 -120 -663 -140 -129
-11 -523 -16 -538 -6 -4 2 -39 7 -77 11 -197 16 -443 69 -612 130 -127 45
-347 165 -305 165 7 0 12 15 12 36 0 40 43 135 73 161 14 13 18 13 12 3 -5 -8
6 -3 24 13 18 15 37 28 42 28 5 1 15 2 22 3 18 3 37 -14 37 -34 0 -9 -16 -31
-35 -49 -41 -37 -41 -39 -15 -88 11 -21 20 -45 20 -53 0 -8 8 -1 19 15 10 17
17 45 16 62 -1 28 1 31 16 23 15 -9 17 -6 14 19 -3 22 3 37 23 56 14 15 28 22
30 16 2 -6 13 -11 25 -12 12 0 16 -3 10 -6 -7 -2 -13 -9 -13 -14 0 -5 15 1 34
13 19 13 32 27 29 32 -4 5 -1 6 5 2 7 -4 20 -2 29 3 11 6 13 11 5 11 -7 0 -10
5 -7 10 3 6 1 10 -6 10 -7 0 -4 7 7 15 10 8 -9 3 -43 -10 -76 -30 -100 -31
-108 -4 -10 30 18 55 94 82 142 53 191 54 191 6 0 -10 4 -20 8 -23 12 -7 75
25 90 46 7 10 18 16 23 13 14 -9 11 12 -6 46 -9 16 -14 33 -11 38 3 4 -6 6
-19 3 -14 -2 -31 0 -38 6 -13 11 -52 6 -72 -8 -5 -4 -25 -8 -43 -8 -17 0 -42
-4 -55 -8 -55 -17 -3 9 64 31 92 31 43 23 -68 -11 -80 -24 -112 -41 -55 -28
23 5 22 2 -13 -19 -22 -14 -40 -29 -40 -33 0 -9 -53 -12 -74 -5 -11 3 -10 6 5
12 12 5 14 8 4 8 -25 1 -175 -83 -173 -96 2 -7 -3 -10 -10 -7 -20 7 -97 -64
-91 -84 4 -13 3 -14 -4 -4 -12 17 -65 -41 -83 -92 -7 -20 -16 -36 -20 -36 -15
0 -59 105 -59 139 0 20 11 60 25 90 113 243 660 442 1257 458 l188 6 -16 -47
c-16 -45 -17 -46 -49 -40 -32 6 -34 4 -59 -49 l-26 -56 -51 35 c-28 19 -57 34
-65 34 -7 0 -21 -16 -29 -36 -12 -29 -19 -35 -32 -28 -80 34 -155 54 -214 54
-61 0 -67 -2 -72 -22 -10 -42 2 -148 23 -195 11 -25 20 -47 20 -49 0 -2 -13
-10 -29 -18 -16 -9 -31 -22 -34 -30 -7 -19 32 -91 73 -134 37 -39 156 -98 216
-107 37 -6 42 -4 93 49 29 31 59 56 66 56 6 0 20 9 29 19 17 18 17 21 1 45
-26 39 -173 163 -202 171 -24 6 -42 -6 -43 -27 0 -4 24 -26 53 -50 28 -23 71
-64 95 -91 34 -39 40 -50 30 -61 -7 -8 -15 -10 -18 -5 -3 4 -12 4 -19 0 -7 -5
-11 -13 -7 -19 12 -19 -81 -5 -137 21 -51 23 -127 81 -127 97 0 4 20 13 45 20
43 12 57 31 35 45 -37 23 -102 187 -83 206 22 22 176 -30 242 -82 l26 -21 10
40 c5 23 13 44 18 48 10 10 83 -62 112 -111 13 -22 29 -69 36 -105 7 -36 14
-66 15 -68 1 -2 18 7 39 19 35 21 37 25 32 62 -3 21 -21 72 -41 112 -20 41
-36 82 -36 92 0 27 11 63 19 63 4 0 25 -18 48 -40 l40 -40 13 77 c7 43 21 101
31 128 19 50 85 145 105 152 6 2 23 -20 39 -49 l28 -52 26 33 c51 66 211 168
267 171 6 0 14 -24 17 -53z m177 -266 c0 -5 -7 -14 -15 -21 -12 -10 -15 -10
-15 2 0 8 3 18 7 21 9 10 23 9 23 -2z m144 -91 c11 -28 22 -40 36 -40 28 0 25
-12 -15 -85 -50 -89 -111 -156 -138 -151 -12 2 -21 8 -20 14 1 5 -8 8 -20 5
-18 -4 -20 -3 -7 7 12 10 12 11 -5 4 -11 -4 -30 -8 -43 -8 -13 -1 -20 -6 -17
-13 2 -7 -2 -13 -10 -13 -32 0 -24 39 31 141 73 138 111 177 170 178 16 1 26
-9 38 -39z m-1774 -215 c-7 -8 -18 -15 -24 -15 -6 0 -2 7 8 15 25 19 32 19 16
0z m-337 -105 c-9 -11 -19 -17 -21 -15 -6 6 18 35 29 35 5 0 1 -9 -8 -20z
m1780 1 c-11 -10 -35 -27 -54 -36 -34 -17 -34 -17 -14 2 11 11 22 19 24 17 2
-1 12 6 24 17 11 10 25 19 31 19 5 0 1 -9 -11 -19z m-1816 -33 c-3 -8 -6 -5
-6 6 -1 11 2 17 5 13 3 -3 4 -12 1 -19z m193 -183 c-7 -9 -15 -13 -18 -10 -3
2 1 11 8 20 7 9 15 13 18 10 3 -2 -1 -11 -8 -20z m-248 -173 c136 -93 369
-182 604 -231 257 -54 372 -65 679 -65 298 0 382 8 650 60 178 35 231 50 370
105 164 65 267 124 354 203 33 31 34 31 28 6 -3 -14 -9 -45 -13 -70 -12 -88
-60 -239 -111 -353 -20 -44 -29 -55 -39 -46 -7 6 -14 20 -16 32 -3 20 -11 23
-83 29 -58 4 -92 2 -123 -9 -27 -9 -57 -12 -80 -7 -20 3 -45 7 -55 8 -10 1
-27 10 -38 19 -22 19 -39 22 -39 7 0 -5 7 -10 15 -10 10 0 15 -7 13 -17 -3
-19 1 -20 42 -8 20 5 22 4 10 -5 -11 -9 -12 -13 -3 -17 10 -3 9 -12 -3 -34
-14 -29 -18 -30 -70 -27 -35 2 -54 7 -54 15 0 30 -17 7 -54 -70 -21 -45 -61
-115 -88 -155 -58 -86 -175 -208 -233 -242 -22 -14 -44 -28 -50 -32 -16 -13
-83 -56 -105 -68 -16 -9 -25 -8 -35 0 -11 9 -19 8 -36 -4 -12 -8 -34 -14 -48
-12 -14 2 -18 1 -8 -1 9 -2 17 -9 17 -14 0 -11 -1 -11 -75 1 -154 27 -213 30
-260 13 -33 -11 -50 -12 -57 -5 -7 7 -19 7 -36 1 -18 -7 -27 -6 -32 2 -4 6
-18 10 -31 9 -40 -4 -49 -1 -49 15 0 13 -9 16 -100 30 -14 2 -52 -2 -85 -9
-47 -9 -55 -13 -36 -18 13 -4 20 -11 16 -17 -7 -13 76 -68 125 -81 19 -6 42
-15 50 -21 31 -22 -45 3 -150 50 -188 83 -370 220 -486 363 -172 213 -295 489
-320 715 l-7 68 44 -36 c24 -19 65 -50 91 -67z m2488 -367 c0 -8 -4 -15 -10
-15 -5 0 -10 7 -10 15 0 8 5 15 10 15 6 0 10 -7 10 -15z m-1030 -635 c0 -5 -5
-10 -11 -10 -5 0 -7 5 -4 10 3 6 8 10 11 10 2 0 4 -4 4 -10z m-751 -230 c5 0
26 -9 48 -19 56 -29 150 -61 177 -61 12 0 26 -3 30 -7 20 -20 150 -35 340 -39
172 -4 211 -7 224 -20 14 -15 14 -16 -4 -12 -10 2 -18 9 -17 15 1 6 -9 8 -25
5 l-27 -6 25 -7 c14 -4 21 -7 16 -8 -5 -1 -3 -7 3 -15 13 -15 6 -17 -159 -31
-94 -8 -290 11 -398 40 -157 42 -299 125 -314 183 -5 18 -4 18 33 0 21 -10 42
-18 48 -18z"/>
<path d="M4290 7240 c8 -5 24 -10 34 -10 26 0 18 6 -19 14 -22 5 -26 4 -15 -4z"/>
<path d="M6166 5530 c-20 -22 -57 -71 -83 -110 -49 -75 -55 -76 -68 -5 -13 75
-37 96 -56 48 -6 -18 -6 -57 1 -120 10 -90 9 -96 -14 -146 -14 -28 -24 -52
-23 -54 2 -1 26 5 54 13 34 10 54 22 58 34 10 32 50 56 137 85 97 32 158 63
158 82 0 19 -63 16 -144 -7 -38 -11 -71 -18 -73 -17 -1 2 24 45 57 96 33 51
60 100 60 110 0 35 -28 31 -64 -9z"/>
<path d="M5126 5301 c-4 -5 3 -7 14 -4 11 3 20 0 20 -6 0 -6 8 -11 18 -10 10
0 12 3 4 6 -6 2 -10 9 -6 14 3 5 -6 9 -20 9 -14 0 -27 -4 -30 -9z"/>
<path d="M6098 5203 c7 -3 16 -2 19 1 4 3 -2 6 -13 5 -11 0 -14 -3 -6 -6z"/>
<path d="M6870 5099 c0 -5 5 -7 10 -4 6 3 10 8 10 11 0 2 -4 4 -10 4 -5 0 -10
-5 -10 -11z"/>
<path d="M6983 5008 c-34 -16 -28 -29 7 -17 16 6 27 15 24 20 -3 5 -6 9 -7 8
-1 0 -12 -5 -24 -11z"/>
<path d="M4980 4961 c-38 -12 -85 -38 -100 -56 -31 -37 32 -131 125 -183 17
-10 18 -11 3 -12 -10 0 -18 -7 -18 -15 0 -18 -16 -20 -23 -2 -4 8 -6 7 -6 -3
-1 -23 59 -58 109 -65 32 -4 39 -3 25 4 -15 7 -5 9 34 6 34 -2 59 -8 66 -18 9
-13 58 -21 103 -18 18 1 15 28 -5 40 -13 8 -14 10 -4 11 11 0 9 4 -5 15 -10 8
-14 15 -9 14 28 -4 66 2 61 10 -7 10 -86 -2 -146 -23 -64 -22 -93 -21 -105 7
-6 14 -18 22 -33 21 -43 -1 -22 13 26 18 64 6 158 50 167 78 7 22 -20 88 -52
126 -40 48 -136 68 -213 45z m128 -75 c15 -8 36 -23 46 -35 26 -28 8 -48 -50
-57 -93 -14 -192 67 -116 94 40 15 89 14 120 -2z m-78 -226 c0 -5 -5 -10 -11
-10 -5 0 -7 5 -4 10 3 6 8 10 11 10 2 0 4 -4 4 -10z m225 -35 l40 -14 -42 -1
c-40 0 -60 10 -46 24 3 3 7 6 7 6 1 0 19 -7 41 -15z"/>
<path d="M6705 4797 c-7 -8 -3 -19 12 -36 13 -13 23 -20 23 -16 0 5 -7 17 -17
27 -15 17 -15 18 1 18 9 0 14 5 11 10 -8 13 -18 12 -30 -3z"/>
<path d="M6747 4769 c6 -6 9 -19 6 -28 -5 -13 -2 -12 16 4 21 18 21 20 4 26
-28 11 -38 10 -26 -2z"/>
<path d="M4745 4740 c3 -5 8 -10 11 -10 2 0 4 5 4 10 0 6 -5 10 -11 10 -5 0
-7 -4 -4 -10z"/>
<path d="M6715 4720 c-3 -6 1 -7 9 -4 18 7 21 14 7 14 -6 0 -13 -4 -16 -10z"/>
<path d="M5314 4655 c1 -8 6 -18 11 -22 4 -4 5 -2 1 5 -4 6 -2 12 4 12 6 0 8
5 5 10 -9 15 -24 12 -21 -5z"/>
<path d="M5395 4639 c-4 -6 -13 -8 -19 -6 -9 4 -11 -3 -8 -19 4 -22 -11 -34
-21 -16 -2 4 -2 1 0 -7 2 -8 -5 -23 -14 -35 -17 -20 -17 -20 1 -6 11 8 22 15
25 15 3 0 15 19 28 43 12 23 21 42 18 42 -2 0 -7 -5 -10 -11z"/>
<path d="M6308 4623 c20 -8 14 -23 -10 -23 -12 0 -19 -3 -15 -6 3 -4 43 -1 88
6 94 15 89 30 -11 29 -36 0 -59 -3 -52 -6z"/>
<path d="M6253 4613 c9 -2 23 -2 30 0 6 3 -1 5 -18 5 -16 0 -22 -2 -12 -5z"/>
<path d="M5315 4580 c3 -5 8 -10 11 -10 2 0 4 5 4 10 0 6 -5 10 -11 10 -5 0
-7 -4 -4 -10z"/>
<path d="M5889 4577 c6 -8 7 -18 3 -22 -4 -5 -1 -5 6 -1 10 6 10 11 1 22 -6 8
-14 14 -16 14 -3 0 0 -6 6 -13z"/>
<path d="M6150 4570 c-18 -12 -2 -12 25 0 13 6 15 9 5 9 -8 0 -22 -4 -30 -9z"/>
<path d="M5865 4560 c-3 -5 -1 -10 4 -10 6 0 11 5 11 10 0 6 -2 10 -4 10 -3 0
-8 -4 -11 -10z"/>
<path d="M6685 5229 c-4 -6 -5 -12 -2 -15 2 -3 7 2 10 11 7 17 1 20 -8 4z"/>
<path d="M7070 4424 c0 -22 -5 -45 -12 -52 -9 -9 -9 -12 0 -12 17 0 36 80 23
93 -8 8 -11 -1 -11 -29z"/>
<path d="M6543 4315 c-3 -9 -3 -18 -1 -21 3 -3 8 4 11 16 6 23 -1 27 -10 5z"/>
<path d="M7026 4305 c4 -8 8 -15 10 -15 2 0 4 7 4 15 0 8 -4 15 -10 15 -5 0
-7 -7 -4 -15z"/>
<path d="M6588 4279 c-17 -18 -17 -19 7 -19 14 0 25 5 25 10 0 6 9 10 20 10
11 0 20 5 20 10 0 17 -54 9 -72 -11z"/>
<path d="M5778 3683 c12 -2 32 -2 45 0 12 2 2 4 -23 4 -25 0 -35 -2 -22 -4z"/>
<path d="M5340 3362 c0 -5 7 -9 15 -9 8 0 12 4 9 9 -3 4 -9 8 -15 8 -5 0 -9
-4 -9 -8z"/>
<path d="M3898 7253 c7 -3 16 -2 19 1 4 3 -2 6 -13 5 -11 0 -14 -3 -6 -6z"/>
<path d="M3926 7172 c-3 -5 8 -6 25 -4 16 2 29 6 29 8 0 8 -49 4 -54 -4z"/>
<path d="M4004 6675 c-212 -57 -369 -201 -441 -407 -48 -134 -33 -320 37 -457
61 -121 214 -251 350 -297 43 -15 84 -19 190 -19 161 1 206 14 335 100 95 63
152 128 201 229 115 237 70 501 -117 688 -139 140 -379 210 -555 163z m276
-112 c77 -21 159 -74 220 -140 88 -96 130 -204 130 -334 0 -258 -196 -468
-464 -495 -178 -18 -383 101 -469 272 -86 172 -73 354 38 509 125 176 333 247
545 188z"/>
</g>
</svg>
